<?xml version="1.0" standalone="no"?>
<!DOCTYPE svg PUBLIC "-//W3C//DTD SVG 20010904//EN"
 "http://www.w3.org/TR/2001/REC-SVG-20010904/DTD/svg10.dtd">
<svg version="1.0" xmlns="http://www.w3.org/2000/svg"
 width="64.000000pt" height="64.000000pt" viewBox="0 0 64.000000 64.000000"
 preserveAspectRatio="xMidYMid meet">

<g transform="translate(0.000000,64.000000) scale(0.100000,-0.100000)" stroke="none">
<path d="M83 622 c-6 -4 -17 -20 -22 -35 -15 -39 -15 -494 0 -536 13 -37 37
-45 117 -39 157 13 314 134 373 288 24 63 44 215 35 266 -13 64 -13 64 -264
64 -125 0 -232 -4 -239 -8z m462 -147 c0 -114 -2 -123 -32 -188 -67 -142 -209
-240 -348 -241 l-70 -1 -3 265 c-1 146 0 270 3 278 3 10 53 12 227 10 l223 -3
0 -120z"/>
<path d="M230 471 c0 -14 28 -21 90 -21 62 0 90 7 90 21 0 5 -40 9 -90 9 -49
0 -90 -4 -90 -9z"/>
<path d="M180 321 c0 -5 7 -12 16 -15 20 -8 228 -8 248 0 43 16 3 24 -124 24
-77 0 -140 -4 -140 -9z"/>
<path d="M180 221 c0 -5 7 -12 16 -15 20 -8 178 -8 198 0 41 16 6 24 -99 24
-63 0 -115 -4 -115 -9z"/>
<path d="M556 204 c-3 -9 -6 -47 -6 -84 0 -85 -7 -90 -115 -90 -57 0 -76 -3
-73 -12 6 -17 122 -23 170 -9 43 13 58 46 58 127 0 55 -7 84 -20 84 -4 0 -11
-7 -14 -16z"/>
</g>
</svg>
