<?xml version="1.0" standalone="no"?>
<!DOCTYPE svg PUBLIC "-//W3C//DTD SVG 20010904//EN"
 "http://www.w3.org/TR/2001/REC-SVG-20010904/DTD/svg10.dtd">
<svg version="1.0" xmlns="http://www.w3.org/2000/svg"
 width="1200.000000pt" height="1200.000000pt" viewBox="0 0 1200.000000 1200.000000"
 preserveAspectRatio="xMidYMid meet">

<g transform="translate(0.000000,1200.000000) scale(0.100000,-0.100000)" stroke="none">
<path d="M1801 9584 c-253 -68 -410 -331 -346 -579 45 -172 179 -305 352 -350
50 -13 559 -15 4193 -15 3681 0 4142 2 4195 15 256 67 415 329 350 578 -45
173 -178 307 -350 352 -53 13 -513 15 -4200 14 -3582 0 -4147 -2 -4194 -15z"/>
<path d="M1801 6464 c-253 -68 -410 -331 -346 -579 45 -172 179 -305 352 -350
50 -13 559 -15 4193 -15 3681 0 4142 2 4195 15 256 67 415 329 350 578 -45
173 -178 307 -350 352 -53 13 -513 15 -4200 14 -3582 0 -4147 -2 -4194 -15z"/>
<path d="M1801 3344 c-253 -68 -410 -331 -346 -579 45 -172 179 -305 352 -350
50 -13 559 -15 4193 -15 3681 0 4142 2 4195 15 256 67 415 329 350 578 -45
173 -178 307 -350 352 -53 13 -513 15 -4200 14 -3582 0 -4147 -2 -4194 -15z"/>
</g>
</svg>
