<?xml version="1.0" standalone="no"?>
<!DOCTYPE svg PUBLIC "-//W3C//DTD SVG 20010904//EN"
 "http://www.w3.org/TR/2001/REC-SVG-20010904/DTD/svg10.dtd">
<svg version="1.0" xmlns="http://www.w3.org/2000/svg"
 width="96.000000pt" height="96.000000pt" viewBox="0 0 96.000000 96.000000"
 preserveAspectRatio="xMidYMid meet">

<g transform="translate(0.000000,96.000000) scale(0.100000,-0.100000)"
fill="#000000" stroke="none">
<path d="M386 870 c-63 -16 -153 -70 -197 -117 -22 -24 -55 -74 -72 -111 -28
-60 -32 -77 -32 -157 0 -107 18 -168 73 -240 84 -111 185 -160 327 -160 80 0
97 4 157 32 93 44 151 100 196 191 35 72 37 81 37 172 0 91 -2 100 -37 172
-68 136 -188 217 -336 224 -42 2 -94 -1 -116 -6z m146 -137 c26 -27 34 -30 56
-22 14 5 38 7 53 4 36 -8 79 -59 79 -93 0 -35 -33 -88 -59 -97 -17 -5 -21 -15
-21 -50 0 -104 -58 -216 -148 -285 -43 -33 -45 -33 -90 -21 -154 41 -253 182
-239 337 13 136 115 254 244 283 44 9 75 -5 125 -56z m218 -388 c15 -18 10
-45 -12 -59 -35 -22 -74 27 -48 59 16 19 44 19 60 0z"/>
<path d="M260 660 c-11 -11 -20 -29 -20 -40 0 -26 34 -60 60 -60 26 0 60 34
60 60 0 11 -9 29 -20 40 -11 11 -29 20 -40 20 -11 0 -29 -9 -40 -20z"/>
<path d="M331 466 c-87 -48 -50 -186 49 -186 51 0 100 49 100 99 0 75 -83 124
-149 87z"/>
</g>
</svg>
