<?xml version="1.0" standalone="no"?>
<!DOCTYPE svg PUBLIC "-//W3C//DTD SVG 20010904//EN"
 "http://www.w3.org/TR/2001/REC-SVG-20010904/DTD/svg10.dtd">
<svg version="1.0" xmlns="http://www.w3.org/2000/svg"
 width="920.000000pt" height="920.000000pt" viewBox="0 0 920.000000 920.000000"
 preserveAspectRatio="xMidYMid meet">

<g transform="translate(0.000000,920.000000) scale(0.100000,-0.100000)"
stroke="none">
<path d="M4540 8998 c-85 -44 -80 18 -80 -923 0 -926 -4 -874 69 -922 66 -45
156 -18 193 57 17 32 18 95 18 865 0 784 -1 832 -18 865 -18 34 -88 80 -122
80 -9 0 -36 -10 -60 -22z"/>
<path d="M1564 7781 c-48 -29 -64 -59 -64 -119 0 -64 -31 -28 430 -497 717
-729 763 -775 797 -781 113 -21 200 75 162 178 -10 28 -139 165 -485 515 -259
263 -517 527 -574 586 -58 60 -117 115 -132 123 -38 20 -97 17 -134 -5z"/>
<path d="M7557 7735 c-15 -8 -34 -20 -41 -27 -17 -16 -503 -496 -874 -863
-156 -154 -290 -292 -298 -307 -8 -15 -14 -36 -14 -47 0 -41 32 -101 65 -121
37 -23 107 -26 142 -7 12 7 147 136 300 287 153 151 419 413 590 583 224 221
315 317 323 341 36 110 -90 215 -193 161z"/>
<path d="M4325 6945 c-465 -63 -864 -237 -1213 -528 -87 -72 -261 -251 -333
-342 -417 -527 -586 -1224 -458 -1885 32 -167 71 -295 135 -447 201 -481 536
-863 988 -1128 649 -380 1477 -414 2159 -87 242 116 429 246 621 432 393 381
625 847 698 1402 17 136 15 429 -5 577 -95 682 -466 1269 -1044 1648 -264 174
-573 292 -913 349 -131 22 -502 27 -635 9z m575 -281 c443 -65 837 -262 1155
-579 298 -296 489 -659 571 -1081 24 -124 27 -163 28 -359 1 -238 -6 -300 -56
-505 -170 -706 -716 -1274 -1420 -1479 -194 -57 -319 -74 -553 -75 -222 -1
-315 8 -490 49 -607 142 -1118 560 -1389 1135 -96 204 -146 385 -181 654 -12
92 -7 379 10 491 67 463 272 865 606 1191 456 443 1093 649 1719 558z"/>
<path d="M292 4760 c-81 -50 -80 -179 3 -230 32 -20 48 -20 874 -20 604 0 848
3 864 11 40 21 67 52 78 91 14 52 -2 98 -47 138 l-35 30 -852 0 c-837 0 -853
0 -885 -20z"/>
<path d="M7130 4742 c-68 -68 -60 -157 19 -209 l34 -23 845 0 c829 0 845 0
877 20 83 51 84 180 3 230 -32 20 -48 20 -887 20 l-853 0 -38 -38z"/>
<path d="M2686 2935 c-29 -10 -85 -59 -205 -178 -415 -409 -805 -793 -903
-886 -125 -120 -147 -159 -127 -229 22 -77 107 -120 181 -89 33 14 178 154
972 937 131 129 244 249 252 267 18 42 18 67 -2 109 -31 65 -99 93 -168 69z"/>
<path d="M6397 2905 c-48 -16 -62 -28 -81 -69 -21 -44 -20 -84 2 -123 9 -17
253 -272 542 -565 629 -639 627 -637 657 -649 131 -50 240 106 152 217 -17 22
-164 174 -327 339 -163 165 -416 421 -562 569 -146 147 -272 271 -280 276 -32
16 -67 18 -103 5z"/>
<path d="M4544 2151 c-31 -14 -72 -68 -79 -104 -3 -18 -5 -403 -3 -857 3 -791
4 -826 22 -853 53 -78 177 -76 234 4 16 22 17 93 20 854 2 548 0 842 -7 865
-16 56 -61 92 -118 96 -26 2 -57 0 -69 -5z"/>
</g>
</svg>
